<svg xmlns="http://www.w3.org/2000/svg" fill="none" viewBox="0 0 343 480">
  <defs>
    <style>
        path { fill: #000; }
        @media (prefers-color-scheme: dark) {
            path { fill: #FFF; }
        }
    </style>
  </defs>
  <path id="Color_Fill_1" data-name="Color Fill 1" class="cls-1" d="M382,98q0.5,3.5,1,7l26-2c-18.83,16.745-72.822-14.974-82,7h1c26.4-9.7,57.161,7.227,82-2l-1,4c-28,7.961-56.067-5.691-82,1l-1,3c26.336-9.411,59.367,5.543,85-2v3h-2c-15.482,10.5-60.967-3.556-84,2l-1,4h3c30.226-9.291,67.385,8.1,91-9h1c-2.872,8.748-17.062,14.169-24,19l2,2,23-16,2,2-1,2-22,15,1,2,4-4,18-12,2,1-2,3-19,14,2,2,9-9c4.45-2,7.045-5.442,12-4l-2,1-16,14,19,4v1c-35.232.2-24.841-19.7-42-26,9.673,20.583,18.123,23.812,43,30v1l-1,1c-24.566.429-39.408-13.722-45-32h-3v1c5.769,11.717,13.875,24.879,26,30,5.765,2.435,17.592,1.047,21,6h-9c-15.429-4.876-26.012-10.085-34-22-4.137-6.171-4.475-12.094-11-16,9.034,33.852,25.588,29.646,55,42v1c-16.067-.352-31.034-10.086-37-3l2,3c5.218,0.8,30.716,6.4,32,9H412c-32.74-10.247-64.946-47.935-107-32l-2,4c51.267-21.138,77.98,33.6,122,31v3c-40.822,1.154-86.12-59.042-129-27-7.728,5.775-20.672,19.331-24,29-7.542,21.911-2.224,127.583,7,140s35.342,28.314,59,22c11.118-2.967,17.133-9.381,32-10v3c-7.791-.207-12.583,1-17,4l5,7h-1l-7-6c-17.323,7.429-33.195,4.653-50-1l7,10c7.519-.373,15.094-0.229,19,3v1l-11-1c1.811,4.445,2.925,8.623,7,11,9.5,4.491,20.543,3.364,31,2v1l-2,3h5v2l-35-5v1c17.651,21.241,67.292-9.311,88,8v1c-6.8-.273-4.613-1.25-8,3l-4-6c-26.752.225-51.618,7.665-74,0,13.247,16.847,57.7-4.226,65,7-8.421-1.021-19.2-1.452-26,2,2.7,1.6,1.377.339,3,3-13.511-.617-31.106-2.4-41-7q0.5,8.5,1,17c7.675,1.2,12.556,4.621,17,9,7.616-5.865,12.121-10.818,26-11v1l-2,1c-9.336,3.772-16.856,3.089-21,12h1c13.738-10.475,36.162-15.954,52-4l-2,2c-12.631-9.386-34.618-6.34-48,4l10,11,6,4v1h-4c-7.917-9.717-20.961-25.031-36-27v2c15.334,2.646,26.773,17.325,31,31,7.227-.515,18.279-1.543,21,3l-18,1,11,14h-4c-10.307-14.452-20.568-43.283-42-46v3c8.9,2.857,18.779,10.381,21,20h-1c-6.943-6.571-10.8-14.489-22-17l-3,11c4.025,8.117,9.574,12.614,15,19v1l-4-2c-6.132-2.918-10.832-10.156-13-17h-1c3.749,20.375,25.418,23.9,30,42h-1l-2-1c-5.257-13.6-21.523-22.3-29-36l-2,2,15,22h-1l-7-6-9-13-4,4c3.09,3.84,6.254,5.392,6,10l-9-9c-13.745-4.768-33.077-11.154-39-24l-2,2,8,9c18.438,7.074,49.932,22.819,56,42h-1l-5-5-16-16c-9.731-7-34.092-21.142-44-26v1c13.7,17.645,40.627,22.4,54,40v1c-21.151-6.606-38.141-28.617-57-38v1c12.576,16.493,33.574,24.437,50,37l-2,2-8-6c-0.171,5.622,1.457,9.877-2,12v-2c-1.891-4.519.03-9.95-3-14v2c-1.574,3.906-.275,5.841-4,8,0.534-6.528,2.031-9.681-2-12-1.067,9.175,3.519,27.963,2,30h-1c-2.713-8.933-2.03-25.251-4-32h-1l-4,10h-1v-4l3-8c-10.751-3.89-16.694-13.556-25-20l-4,3,6,6-2,2-5-4c-9.411-19.432-20.247-30.925-21-60l-3,1c1.55,13.817,3.349,34.833,11,46,13.946,20.355,34.364,34.18,36,68h-1l-1-2-13-38-27-33q-4-19.5-8-39h-1c-6.055,46.983,33.938,51.61,39,86h-3c-3.346-30.944-38.59-30.357-39-86l-3,1c-0.635,55.062,29.332,48.7,37,79h-1l-6-7v20l-1-2c-3.338-8.647,1.169-19.509-5-25h-1q2,20,4,40l-2,2h-1q-0.5-2-1-4-0.5-11-1-22h-1c0.244,5.276.1,9.353-2,12h-1q1-12,2-24l-3,2q-1,6.5-2,13l-2-2q0.5-3.5,1-7c-7.821,3.581-6.452,10.383-10,15h-1q0.5-4.5,1-9c3.33-7.15,11.883-13.528,18-18l-4-5h-1c-13.06,5.386-21.994,19.4-28,32l-2-2c7.109-14.944,17.19-21.546,27-33v-1c-9.29,1.613-8.274,7.354-15,11v-1c3.092-6.036,6.074-8.917,11-13a166.682,166.682,0,0,1-12-29l-2,2-16,7v9c4.072,1.895,6.218,2.567,8,7h-1l-7-3q-1,10.5-2,21l-2-2q0.5-15.5,1-31h-1c0.424,15.489-.256,45.492-8,52h-1c3-11.576,10.387-38.632,5-52l-2,1q-2,18-4,36h-1l-2-1v-1l3-16c-9.886,5.024-11.3,11.16-18,19l-1-2c3.508-12.6,12.233-14.19,20-22l-1-1c-10.371,5.527-18.943,13.029-21,27h-2v-7l-5,2,1-3c8.567-3.447,21.669-17.21,28-24q0.5-3.5,1-7l-16-5h-1q-1,7.5-2,15h-3c1.3-6.605,3.75-13.939-1-18-0.076,11.121-3.637,20.063-10,25l-2-1,4-4c1.942-6.24,6.722-15.216,5-22l-8-3-1,1-9,26h-3v-1l6-16-9,7,2-4c4.045-5.928,8.637-5.611,11-14l-24,16c-3.089,4.515.639,8.835-4,12v-5c-3.87,2.046-3.537,4.3-6,0,4.6-2.241,27.264-20.686,31-25l-19,8,1-3,11-6c-6.652.729-8.679,2.764-11-1,34.98-8.273,57.238,31.138,88,3-9.743,3.266-17.129,9.156-30,10-12.565.824-23.415-12.127-33-16-7.768-3.139-16.856-1.191-26-1v-1c26.561-19.473,57.349,38.311,89,3-12.842,4.373-30.587,13.951-46,5-8.221-4.774-14.651-11.875-26-14-19.2-3.594-32.329,7.965-45,11l1-3,10-7c-4.472-1.307-2.009.662-4-3,12.053,1.937,22.51-1.919,35-1,13.312,0.979,61.988,36.456,74,6-40.736,22.217-42.578-8.294-79-9v-1c5.434-4.34,14.56-.71,20,1l3-15-2-2c-13.627-4.635-20.012-1.218-33,2l1-3c14.032-5,23.3-7.282,36,1l1-3-2-3c-14.44-5.252-27.4,2.188-39,1l1-2c8.93-2.4,21.139-9.185,33-5l10,5v-1l-2-4c-5.236-1.46-29.662-3.209-31-5l11-2c-1.11-2.835-.865-1.454-1-4,6.191,3.542,23.186,10.407,27,9l8-13c-4.807-1.041-8.034-1.865-10-6,25.7,5.79,46.5,22.148,70,3,16.81-13.694,18.515-148.563,4-169-19.615-27.618-58.931-2.851-87,3v2h5c18.624-6.557,50.682-25.95,71-12,6.431,4.415,13.611,14.79,16,23,7.549,25.938,3.734,131.169-8,147-18.945,25.559-49.216,4.5-71-1-8.818-2.228-15.556,3.427-19-1,32.832-8.307,68.088,32.643,90-3,9.589-15.6,7-47.8,7-72,0.009-68,3.8-112.107-64-84l-31,8c23.183,1.027,47.608-24.491,73-14,8.173,3.377,16.686,13.932,19,23,4.585,17.965.508,127.54-6,138-9.551,15.351-50.532,18.481-61,1,17.649,3.758,41.936,19.11,56,1,12.491-16.084,12.824-138.317,1-153-14.808-18.389-39.174-2.906-54,3-7.572,3.016-27.435,1.321-33,7v1c29.594,0.829,71.165-32.59,88-3,7.556,13.28,3.831,130.461-2,139-4.838,7.085-21.664,18.289-33,9v-1c46.388,4.529,35-49.312,35-95,0-22.52,3.568-49.833-10-59-19.479-13.16-41.38,9.286-58,13l-24-1c-13.027,4.147-25.5,19.643-46,15v-1l1-1c30.335,0.106,57.13-16.754,60-44h-1l-3,2c-0.6,19.612-32.759,47.965-56,38v-1c28.161-2.87,50.135-10.975,54-38h-1l-2,1c-2.973,23.214-26.286,31.249-50,34l-1-2v-1c26.041-.543,42.108-11.854,49-32v-1h-4c-2.223,14.53-24.135,37.677-44,29l2-2,16-2q-0.5-1-1-2l-21,2v-3l31-2c-8.735-4.511-21.55-2.374-33-2v-1c8.873-6.419,30.436.707,39-1v-1c-7.9-2.334-38.083-2.971-40-6,12.67,0.229,38.749,4.428,44,1-5.694-1.266-43.417-3.485-46-6l8-1-4-7c5.813,2.242,4.394,5.276,11,7l-7-7-1-3,1-1,14,12L96,140h1l12,11c1.76,3.839.283,2.909,5,4q-0.5-1.5-1-3l-13-15h1c7.837,4.657,10.662,13.54,18,18l14,4q1-4.5,2-9c-16.6-2.578-36.554-13.634-45-25l1-1,6,4-3-6h1c11.494,8.6,50.114,36.033,69,16l-2-2c-19.454,10.166-58.377-.9-64-19,18.7,10.8,34.827,26.141,63,17v-1l-2-3c-19.674,9.968-46.2-1.2-58-16v-1c13.271,4.083,39.9,32.361,57,13l-4-14c-16.65,5.815-35.216-.817-50-5v-1q0.5-1,1-2c11.256,4.319,29.491,11.143,45,7,28.948-7.734,24.651-29.774,65-8v-3c-43.868-16.121-37.868,1.879-73,8-11.394,1.985-29.869-1.9-33-9h1c43.327,19.117,61.751-22.79,105-2-22.324-35.649-71.748,27.5-104-2V94c11.012,1.565,21.017,9.139,36,6,9.129-1.912,15.127-8.059,22-12,16.924-9.7,32.608-.831,47,4-20.879-22.077-48-1.561-70,3-11.27,2.337-21.627-1.779-30-3V89l8,2L114,81l1-2,6,6c5.8,2.705,8.651,5.567,16,8L117,76V75c9.62,3.086,18.089,18.086,28,16h-2c-6.638-6.861-18.771-11.03-22-21h1l27,21c-3.976-13.613-18.854-12.616-24-24l20,12-6-18h1l2,1,9,28,5-1V85L145,60l1-2,2,1,11,28h2V84L150,55h1l2,1c2.991,8.57,11.88,19.186,10,29l3-1c-0.155-13.615-6.137-21.914-11-31l2-1h1c3.509,10.056,9.411,17.126,11,30h1l15-3V75c-13.606-4.175-21.829-14.33-27-27l1-2,2,1c3.771,12.429,12.316,20.326,24,25V68a27.949,27.949,0,0,1-22-25h1l1,2c5.4,8.8,8.672,17.113,20,20l-1-3c-7.421-1.923-21.581-12.18-15-21,3.036,9.978,6.089,13.211,14,18h1V54c-7.539-1.765-11.832-4.577-12-14h3c0.5,7.868,2.852,9.007,9,11V33l2,3c-0.645,7.124-1.474,39.1,5,43V57c-2.215-7.061-4.191-18.237-2-26h1l1,1q2,23.5,4,47c0.16-18.706-1.815-34.072-3-50h3q1.5,25.5,3,51h3V72c4.1-14.789-2.22-29.574-3-44h3c0.252,17.255,2.916,33.843,3,54l12,6c2.384-12.4,7-20.582,13-29-9.339-4.335-21.564-20.04-24-31h1l2,1c3.554,9.372,14.121,25,24,28l-2-4c-9.755-4.559-17.3-16.266-22-26l2-1h1c3.666,11.335,13.928,20.863,23,27l2-1c-8.493-9.3-17.638-16.306-24-28l3-1c3.933,10.058,13.989,20.868,23,26l2-1c-7.562-8.2-18.643-15.915-22-28h1l3,2,10,13c-0.528-6.578-1.148-13.592,3-16-0.432,8.38-1.077,18.947,3,23V18l2,2q0.5,4.5,1,9c-0.024-5.358.62-10.112,3-13l1,2q-2,13.5-4,27h1l4-3c-0.48-8-2.026-23.909,3-27V37l2-1,9-24h1l1,2c-2.634,26.831-24.446,35.228-36,53-7.522,11.57-6.574,32.525-9,44,6.4-6.855,5.3-28.361,9-37,10.185-23.776,32.723-28.96,38-60h3v1L257,43c-9.586,13.039-23.508,18.943-30,36-2.911,7.648-8.177,28.19-2,34-0.832-39.9,20.57-49.023,35-72,3.869-6.16,5.815-23.251,12-27-4.239,43.127-50.243,51.124-44,101h3c-0.484-43.6,21.621-51.69,37-77q4-12,8-24h1v6c-4.81,16.3-11.489,29.615-23,39l4,4V61c8.089-6.2,13.181-14.328,24-18V21l2,2c-1.6,5.106-1.2,13.675,1,18h1c-0.882-6.047-3.14-16,2-19q0.5,8.5,1,17h1l2-2V21h2c-0.522,6.448-1.072,12.653,3,15-0.319-6.387-1.2-9.5,1-14h1q0.5,5.5,1,11l2-2,13-8v1l-3,4c-16.484,7.457-44.012,22.34-53,38l1,1,3-2c4.026-8.076,47.79-36.2,57-40v1c-12.841,21.033-47.6,21.866-58,45h1c11.633-11.328,27.034-15.622,41-25,7.27-4.882,11.425-14.724,20-18v1l-2,2c-9.969,19.837-54.118,28.5-57,45l11-11,30-13c8.287-6.013,13.6-17.477,24-21v1L312,51l-4,3,5,4c3.661-10.261,18.332-24.934,29-28v1l-3,4c-10.008,4.623-20.012,16.178-25,26v1h1c9.162-8.93,15.451-23.76,29-28v1l-6,7c-9.116,4.243-16.535,15-21,24l1,2,1-2c8.325-9.583,14.763-20.339,25-28l2,1L331,54c-3.065,6.446-8.013,9.073-10,17h1V69c8.243-7.826,14.274-23.242,26-27v1l-7,7c-4.873,10.047-15.716,14.379-18,27,20.085-4.578,19.211-23.655,31-36h1c-3.194,16.386-15.141,34.766-31,39v1c24.352-5.577,22.04-30.787,37-39-3.328,17.578-18.934,36.87-35,42v3h1c23.466-8.537,22.57-25.468,37-42h1v3c-5.682,12.126-11.853,27.331-22,35-4.54,3.431-12.913,4.114-16,9h1c19.907-7.063,33.652-25.8,40-46h3v1c-3.695,7.456-12.361,19.059-12,26l8,4h1c0.658-7.468,3.754-14,8-18h1v3l-7,16h1l2-1,7-17h2v3l-7,16h2c1.08-7.664,4.152-14.04,9-18h1v1l-7,17h4l6-17h3v1l-7,16,19-3-1,2c-19.3,5.318-33.538,1.77-49-4l-1,2,1,2c21.722,8.942,27.679,7.3,51,2v1l-1,2c-22.009,7.157-35.146,3.108-54-4,5.9,19.076,40.67,9.949,58,8v1l-1,2c-12.874,1.5-28.274,6.936-43,3l-18-9,3,4c9.4,3.6,22.4,10.14,37,8l23-3-1,2ZM304,56c11.371,36.239,29.056,38.359,6,83l4-2C324,113.182,332.275,69.161,304,56Zm-4,2-2,1c10.684,14.641,25.74,40.414,15,67-10.729,26.56-42.553,31.682-48,64q0.5,61.994,1,124c10.856,30.722,66.895,42.309,43,100l-14,20,2,1,4-3c4.413-10.345,12.092-18.4,15-31,11.741-50.877-41.719-60.822-49-102-3.443-19.471.2-114,5-122,12.074-20.119,34.831-30.882,44-55C325.12,98.01,312.85,69.785,300,58Zm-7,3,17,28c15.57,46.763-42.337,62.233-50,95v40c0,35.569-8.424,78.164,7,103,9.824,15.819,30.3,22.756,38,41,11.562,27.411-5.172,47.115-15,64,18.471-5.916,25.765-43.653,17-65-8.078-19.674-28.022-26.957-39-43-7.036-10.282-9.569-119.278-5-141,5.71-27.148,38.593-34.8,48-60C319.053,101.426,308.467,66.034,293,61Zm-42,1c1.238,2.953,11.736,31.3,13,33h1V87C262.219,77.038,259.677,66.085,251,62Zm38,0c-9.879,5.343-17.529,9.409-23,19,2.448,8.728,3.575,17.441,7,24l2-2,29-19Zm-41,3c-0.071,2.658,6.432,23.377,10,28h1V85C256.412,76.77,254.045,69.71,248,65Zm-4,5c3.024,7.361,6.607,11.143,7,22h3V89C251.882,81.284,250.351,73.518,244,70Zm4,21c-0.046-7.811-2.006-13.182-6-17h-1q-2.5,8.5-5,17h12Zm56-4-29,20v4c7.161-4.007,27.317-16.757,31-24h-2Zm24,7q0.5,4.5,1,9c9.544-4.528,24.328-4.906,35-1V96c-8.755-1.227-13.422-4.86-19-9C338.912,89.685,336.414,93.1,328,94Zm-22-2c-9.842,7.337-24.245,12.825-30,24C283.767,110.591,302.706,98.223,306,92Zm-70,2-1,2v1c35.751-1.432,38.233,21.584,37,60l2-1c0.544-22.9.789-44.128-8-57C257.005,96.151,249.256,93.939,236,94Zm-52,2-11,3v7l3,10,2,1c11.074-4.347,20.927-7.047,37-7v-1C209.8,100.185,197.949,95.939,184,96Zm123,0c-9.207,7.1-27.266,14.042-30,27C283.575,118.306,305.881,101.569,307,96Zm59,1q0.5,3,1,6h3v-1C368.483,98.567,369.462,98.78,366,97Zm6,1q0.5,3,1,6h1C373.688,99.762,374.062,100.036,372,98Zm5,0c0.266,5.288-.232,4.821,3,7C379.174,102.278,378.809,99.733,377,98ZM235,99v3c35.783-1.017,33.1,26.565,32,61l2-1C271.367,121.579,268.2,101.406,235,99Zm-67,3c-3.562,15.961,13.947,40.776,24,48h3l-5-6Zm138,0c-9.114,9.453-20.979,15.326-29,26v24C283.186,148.313,321.445,112.026,306,102Zm-71,2q-0.5,1-1,2c10.014-.136,15.177,2.335,21,6,5.636,14.78,5.806,44.309,5,63h1v-2c7.118-9.413,4.812-52.275-1-61C255.946,105.914,245.132,103.941,235,104Zm-72,3c-2.544,14.2,14.474,39.055,24,46l2-1-7-7Q172.5,126,163,107Zm71,2q-0.5,4.5-1,9c11.336,5.118,20.543,20.091,24,33h1c0.66-14.4.851-32.806-8-38C246.405,109.491,241.469,108.793,234,109Zm-76,1c-3.8,17.881,14.894,32.582,21,45h4l-4-5C176.828,144.777,161.63,113.371,158,110Zm41,3-21,7,2,2c82.373-34.791,74,56.26,74,125,0,27.882,5.158,65.9-2,90-13.109,44.14-36.958,38.113-76,33l2,3c86.731,27.348,79-59.09,79-133,0-46.908,4.916-88.353-17-114C231.347,115.874,218.444,112.68,199,113Zm6,4-24,8,2,2c17.035-7.952,41.629-9.635,53,5,16.8,21.62,13,64.5,13,103,0,54.571,9.308,126.075-36,136-14.511,3.179-24.4-3.8-34-6v1l2,3c82.558,22.816,69.764-61.1,70-137,0.084-27.095,6.589-69.795-5-89C238.034,129.8,225.873,117.355,205,117Zm136,5-19,6-6,10c21.678-3.1,40.816,7.081,55,15l4-4,4-3-10-22Zm-136,1-21,7q0.5,1,1,2c39.145-19.574,52.972,5.217,60,40h1C246.013,144.725,233.529,122.369,205,123Zm188,3,1,4,3-3h2v-1h-6ZM98,128l3,3Zm106,0-17,6,12,14c19.647-4.458,29.752,4.083,41,13v-3C234.013,140.924,227.66,127.532,204,128Zm-102,3c11.008,12.056,46.805,26.158,65,12q-0.5-1-1-2C143.339,153.69,119.239,140.667,102,131Zm65,15-11,5-3,12c8.421-2.1,18.132-2.463,24-7C174.353,152.2,171.4,148.133,167,146Zm214,2-7,6,2,2,7-6Zm-60,1c35.807,2.343,48.195,22.123,74,32,7.018,2.686,26.1,1.045,30,7h-7l-30-7c-18.863-9.514-51.915-43.578-84-25-9.049,5.24-23.344,20.7-27,31-5.337,15.029-1.877,120.571,3,129,6.937,11.99,24.871,23.388,41,26l24-2-2,1c-24.9,14.344-58.681-10.567-66-25-7.259-14.314-8.466-107.583-3-128C279.991,165.625,299.65,157.327,321,149Zm63,3-5,6v1c4.756-1.38,4.846-2.284,7-6Zm-68,3c41.386-.712,49.168,20.283,76,31l34,5v1c-13.875,0-26.119.066-36-4-21.454-8.829-46.351-43.577-81-28-9.751,4.384-22.838,20.083-27,30-4.956,11.811-3.532,104.311,0,114,3.933,10.791,12.82,19.242,22,25l-1,2h-1c-8.673-7.453-17.463-13.4-22-25-5.532-14.145-5.413-102.656-1-116C284.549,173.222,300.811,162.928,316,155Zm72,0-4,6,4,2,4-6h-2ZM259,316c0.543,23.305,4.038,57.721-10,67l-18,4c12.827,0.427,19.054-2.14,26-7C262.339,366.574,268.294,330.933,259,316Zm-16,8c-8.588,25.123-13.286,25.982-27,43C229.356,363.206,249.42,342.09,243,324Zm23,6c1.189,35.035.923,60.779-35,60l1,2c32.143,1.345,30.926-9.574,35-37C267.982,348.39,269.4,335.192,266,330Zm-30,3c-15.057,13.97-33.439,8.017-47,18l-7,10,2,3c8.914,1.861,16.384,4.029,29,4C217.31,355.624,240.081,350,236,333Zm35,3c0.2,22.257.289,47.856-14,56-5.878,3.35-21.213.432-25,6,30.521,2.1,39.987-7.972,40-40C272,350.037,273.168,339.763,271,336Zm-95,1c-7.729,14.358-15.126,25.027-21,43l3,2c0.763-19.1,14.047-32.305,23-44l-2-1h-3Zm7,2c-7.263,15.518-19.633,24.117-23,45l2,1c2.737-18.892,14.606-31.426,24-44Zm72,1c-3.263,16.022-14.593,25.968-24,36v8l16-3C252.587,373.8,261.63,355.405,255,340Zm20,0c-0.877,32.938,6.139,50.4,31,56V385C299.971,362.334,291.454,351.555,275,340Zm-86,1c-5.165,8.471-32.75,36.663-21,49,1.373-23.974,16.866-31.851,25-48Zm121,15c16.174,40.587,4.644,48.529-9,81h1C318.538,424.984,334.211,373.207,310,356ZM175,374a39.462,39.462,0,0,0-4,18h2c11.933,7.419,35.671-.2,39-11C197.474,383.229,184.909,379.062,175,374Zm99,2c3.129,10.192,20.407,22.3,31,25C296.123,391.81,283.484,384.485,274,376Zm-1,6-1,1c6.834,9.16,19.444,18.912,31,23v-1Zm-2,5-6,8c-0.207,7.548-2.34,15.83,0,19,3.787,8.231,11.621,12.286,20,16l4-1c3.51-7.834,9.754-11.6,12-21C288.682,403.829,280.36,394.232,271,387Zm-11,10-3,20-9,14,5-4c3.959-9.17,6.563-17.695,10-30h-3Zm-5,2c-2.949,11.447-3.883,19-12,25l2,3,5-4c2.8-7.141,5.99-12.117,7-22Zm-4,2H233v1q4,10,8,20l6-5C248.742,411.506,250.591,408.482,251,401Z" transform="translate(-85 -12)"/>
</svg>
